:SAMPLES-PER-SECOND 30
:FULLY-SPECIFIED
:DEGREES
942
root  42.9041 33.948 1.44045 168.113 -79.5608 -168.695
RightUpLeg  -16.5928 0.480658 -10.6801
RightLeg  62.1018 1.21113 1.95453
RightFoot  -23.8451 2.20029 21.4245
RightToes  7.56698e-010 0 -3.6325e-017
Spine  37.141 -3.95231 -4.51858
Spine1  -7.57119 -5.34133 -3.34721
HEad  -37.7667 14.3842 -30.9304
LeftShoulder1  0.787834 -6.50675 0.64942
LeftArm  -35.2551 -75.943 -26.5822
LeftForeArm  7.99438 -66.368 -26.4314
LeftHand  -0.179312 9.50529 -3.41376
RightShoulder  0.936514 0.323372 18.0081
RightArm  -67.9566 11.2176 28.5643
RightForeArm  96.8977 50.0462 163.825
RightHand  -4.50278 28.2629 -15.7435
LeftUpLeg  -41.8914 20.0627 3.76074
LeftLeg  52.0278 1.31265 2.2909
LeftFoot  -8.48148 -0.0243632 3.02322
LeftToes  -2.88401e-009 5.30678e-011 -1.08654e-010
943
root  41.9696 34.654 1.74916 165.654 -80.0198 -166.031
RightUpLeg  -16.6934 0.205795 -11.0714
RightLeg  62.2077 0.917673 1.35043
RightFoot  -15.0518 0.634559 21.2784
RightToes  7.56698e-010 0 -3.6325e-017
Spine  36.3874 -3.91338 -4.38267
Spine1  -7.7466 -5.24336 -3.13131
HEad  -37.4243 14.3559 -30.8831
LeftShoulder1  0.765368 -6.51685 0.91395
LeftArm  -36.3613 -75.9048 -25.2226
LeftForeArm  7.46336 -66.3146 -26.4226
LeftHand  -0.18985 9.66997 -3.53838
RightShoulder  0.846898 -0.0792369 18.3038
RightArm  -68.2306 11.2456 27.8134
RightForeArm  95.8425 50.3183 163.656
RightHand  -4.83589 27.9031 -17.031
LeftUpLeg  -38.8077 18.8951 3.84005
LeftLeg  49.4699 1.78211 2.69569
LeftFoot  -9.21583 -0.00114025 3.04805
LeftToes  -2.88401e-009 5.30678e-011 -1.08654e-010
944
root  41.0903 35.3231 2.01828 162.68 -80.1294 -163.021
RightUpLeg  -17.9006 -0.234532 -10.9545
RightLeg  63.3382 0.483078 0.478989
RightFoot  -5.11971 -0.927205 16.5941
RightToes  7.56698e-010 0 -3.6325e-017
Spine  35.9719 -3.80507 -4.16471
Spine1  -8.29174 -5.04785 -2.91787
HEad  -37.7052 14.5735 -30.3674
LeftShoulder1  0.731255 -6.49005 1.28127
LeftArm  -37.2304 -75.8042 -24.5255
LeftForeArm  8.00503 -66.4013 -26.4807
LeftHand  -0.218995 10.3953 -3.58912
RightShoulder  0.761398 -0.44982 18.5483
RightArm  -68.0122 11.5053 26.7347
RightForeArm  95.9676 50.725 163.446
RightHand  -4.95375 27.5375 -17.6174
LeftUpLeg  -35.5713 18.0717 4.1863
LeftLeg  46.7849 2.29765 3.05728
LeftFoot  -9.76753 0.0186957 2.91063
LeftToes  -2.88401e-009 5.30678e-011 -1.08654e-010
945
root  40.2949 35.8736 2.24253 162.497 -80.3676 -162.712
RightUpLeg  -19.5201 -1.18814 -11.0966
RightLeg  64.6912 0.60323 0.811884
RightFoot  -0.106401 -1.25561 12.481
RightToes  7.56698e-010 0 -3.6325e-017
Spine  35.7426 -3.9882 -4.11829
Spine1  -9.1072 -5.1109 -3.6691
HEad  -37.6689 14.7132 -29.9319
LeftShoulder1  0.671605 -6.35314 1.8544
LeftArm  -38.6413 -75.807 -23.5645
LeftForeArm  7.64675 -66.3043 -26.3828
LeftHand  -0.19462 9.6713 -3.64937
RightShoulder  0.659482 -0.878401 18.7765
RightArm  -67.6092 12.0171 26.5834
RightForeArm  95.8536 51.0774 163.255
RightHand  -4.99583 28.1383 -17.4461
LeftUpLeg  -32.7929 17.2933 3.97504
LeftLeg  44.2438 2.78841 3.33006
LeftFoot  -10.2034 0.0352377 2.63286
LeftToes  -2.88401e-009 5.30678e-011 -1.08654e-010
946
root  39.5291 36.339 2.42481 162.103 -80.4408 -162.376
RightUpLeg  -21.3544 -2.56148 -10.9233
RightLeg  66.4069 1.30879 2.63711
RightFoot  -2.92366 -0.98256 13.0524
RightToes  7.56698e-010 0 -3.6325e-017
Spine  35.5367 -3.88358 -4.27773
Spine1  -9.49801 -5.01633 -3.70971
HEad  -37.4481 14.7665 -29.731
LeftShoulder1  0.660179 -6.31876 1.95915
LeftArm  -40.437 -76.1361 -22.3753
LeftForeArm  7.42311 -66.2562 -26.3409
LeftHand  -0.218952 10.0058 -3.94716
RightShoulder  0.562314 -1.26271 18.7992
RightArm  -67.5967 12.6547 26.0266
RightForeArm  95.1457 51.5289 162.99
RightHand  -5.37688 28.1913 -18.6875
LeftUpLeg  -30.0639 16.8324 3.94146
LeftLeg  42.0367 3.12608 3.4271
LeftFoot  -10.696 0.050411 2.45815
LeftToes  -2.88401e-009 5.30678e-011 -1.08654e-010
947
root  38.821 36.6876 2.57594 161.563 -80.5681 -161.84
RightUpLeg  -23.8989 -4.66743 -10.3664
RightLeg  67.8687 1.28716 2.78357
RightFoot  -4.63042 -0.818176 13.3247
RightToes  7.56698e-010 0 -3.6325e-017
Spine  35.6273 -4.02788 -4.39392
Spine1  -10.1199 -5.14176 -3.91991
HEad  -36.9035 14.3583 -28.7042
LeftShoulder1  0.644108 -6.43358 2.23486
LeftArm  -41.5247 -76.1703 -21.4707
LeftForeArm  8.12026 -66.4565 -26.5486
LeftHand  -0.210248 10.4301 -3.34826
RightShoulder  0.466992 -1.63756 18.7776
RightArm  -67.5692 13.4238 25.8913
RightForeArm  94.1808 51.8156 162.806
RightHand  -5.68039 28.5922 -19.4702
LeftUpLeg  -27.8213 16.7207 3.86381
LeftLeg  40.2932 3.27296 3.37515
LeftFoot  -11.3237 0.0677876 2.34218
LeftToes  -2.88401e-009 5.30678e-011 -1.08654e-010
948
root  38.1329 36.9726 2.74502 160.175 -80.9628 -160.478
RightUpLeg  -26.7003 -7.43869 -9.49541
RightLeg  68.2292 0.796313 1.49073
RightFoot  -5.87465 -0.604893 11.7739
RightToes  7.56698e-010 0 -3.6325e-017
Spine  35.8788 -4.4613 -4.42683
Spine1  -10.4497 -5.58526 -3.53374
HEad  -37.7058 14.3676 -29.1531
LeftShoulder1  0.628275 -6.26442 2.29184
LeftArm  -42.4693 -76.4437 -21.0259
LeftForeArm  8.34461 -66.4629 -26.5284
LeftHand  -0.186113 10.0598 -3.08186
RightShoulder  0.462263 -1.62943 18.3608
RightArm  -67.9626 13.7377 26.3895
RightForeArm  94.2629 51.6229 162.916
RightHand  -5.58935 28.7263 -19.1018
LeftUpLeg  -25.8142 16.6309 3.76404
LeftLeg  38.8409 3.16151 3.12291
LeftFoot  -12.009 0.0857141 2.34551
LeftToes  -2.88401e-009 5.30678e-011 -1.08654e-010
949
root  37.475 37.1526 2.87899 159.677 -81.1719 -159.798
RightUpLeg  -29.9961 -9.83662 -8.26383
RightLeg  67.1007 0.348505 0.236674
RightFoot  -6.98747 -0.43741 10.2698
RightToes  7.56698e-010 0 -3.6325e-017
Spine  36.1147 -4.57425 -4.66449
Spine1  -10.9796 -5.76322 -2.86918
HEad  -37.4046 14.3838 -28.5597
LeftShoulder1  0.661822 -6.65818 2.19829
LeftArm  -42.5961 -76.6502 -21.2564
LeftForeArm  8.75518 -66.3613 -26.3197
LeftHand  -0.248347 10.0633 -4.56623
RightShoulder  0.472833 -1.55895 18.274
RightArm  -68.7578 13.5558 26.2399
RightForeArm  94.2893 51.5619 162.94
RightHand  -5.25713 28.9178 -17.9181
LeftUpLeg  -24.3814 16.8434 3.62264
LeftLeg  37.9717 2.97348 2.8795
LeftFoot  -12.9053 0.109589 2.33349
LeftToes  -2.88401e-009 5.30678e-011 -1.08654e-010
950
root  36.8515 37.2139 2.99365 158.356 -81.4708 -158.577
RightUpLeg  -32.5999 -12.1936 -6.89067
RightLeg  63.7919 0.325285 0.117496
RightFoot  -8.29968 -0.332562 10.3619
RightToes  7.56698e-010 0 -3.6325e-017
Spine  36.5871 -4.7616 -5.02025
Spine1  -11.0438 -6.11337 -1.81031
HEad  -37.6148 14.2539 -28.8192
LeftShoulder1  0.625238 -6.52663 2.51748
LeftArm  -42.4352 -76.7599 -21.8725
LeftForeArm  8.58955 -66.4117 -26.4178
LeftHand  -0.200171 9.87373 -3.60601
RightShoulder  0.653772 -0.656441 16.4171
RightArm  -70.2648 11.3906 28.0329
RightForeArm  94.3188 50.078 163.746
RightHand  -5.07627 27.1737 -18.2303
LeftUpLeg  -23.1954 16.9246 3.63323
LeftLeg  38.0004 2.73579 2.68356
LeftFoot  -14.0197 0.142217 2.48641
LeftToes  -2.88401e-009 5.30678e-011 -1.08654e-010
951
root  36.2366 37.1845 3.10239 157.382 -81.7268 -157.58
RightUpLeg  -34.8947 -13.8881 -5.36087
RightLeg  58.4132 0.778674 0.905791
RightFoot  -9.05855 -0.267066 10.2841
RightToes  7.56698e-010 0 -3.6325e-017
Spine  36.8619 -5.17812 -4.68785
Spine1  -10.7378 -6.40486 -1.78105
HEad  -37.8294 13.8778 -28.963
LeftShoulder1  0.564444 -6.61762 3.26536
LeftArm  -42.2178 -77.0911 -22.8365
LeftForeArm  8.8853 -66.3857 -26.3389
LeftHand  -0.238598 10.1574 -4.25237
RightShoulder  0.491286 -1.4926 18.0399
RightArm  -70.0264 13.3911 26.7449
RightForeArm  94.1995 50.7507 163.389
RightHand  -5.29114 28.6723 -18.1478
LeftUpLeg  -22.4786 16.6634 3.59524
LeftLeg  38.6907 2.85375 2.84169
LeftFoot  -15.286 0.180066 2.55422
LeftToes  -2.88401e-009 5.30678e-011 -1.08654e-010
952
root  35.6223 37.0343 3.16426 157.743 -81.9452 -157.822
RightUpLeg  -36.7338 -14.6226 -3.89789
RightLeg  51.5879 1.09205 1.1154
RightFoot  -9.4746 -0.236086 10.5073
RightToes  7.56698e-010 0 -3.6325e-017
Spine  37.124 -5.47932 -4.42768
Spine1  -10.6365 -6.58603 -1.82962
HEad  -37.3962 13.3516 -27.9843
LeftShoulder1  0.525946 -6.92542 3.88326
LeftArm  -41.5991 -76.9306 -23.8979
LeftForeArm  9.09086 -66.4854 -26.4613
LeftHand  -0.245159 10.3989 -4.13665
RightShoulder  0.490346 -1.48391 17.9264
RightArm  -70.5515 12.7148 27.0758
RightForeArm  94.1101 50.5334 163.501
RightHand  -5.30181 28.815 -18.0955
LeftUpLeg  -22.2484 16.5998 3.45282
LeftLeg  40.178 2.82537 2.95619
LeftFoot  -16.9347 0.228438 2.60221
LeftToes  -2.88401e-009 5.30678e-011 -1.08654e-010
953
root  34.9962 36.8034 3.17752 159.316 -82.1652 -159.304
RightUpLeg  -37.7507 -14.9132 -2.67999
RightLeg  43.7297 1.08666 0.825121
RightFoot  -9.8613 -0.208414 10.8894
RightToes  7.56698e-010 0 -3.6325e-017
Spine  37.6245 -5.5996 -4.37239
Spine1  -10.9171 -6.72108 -1.48923
HEad  -36.9754 12.9107 -27.5437
LeftShoulder1  0.590296 -7.24842 3.36406
LeftArm  -39.8174 -76.8763 -25.099
LeftForeArm  9.03073 -66.5604 -26.5835
LeftHand  -0.185255 9.88722 -3.24456
RightShoulder  0.476807 -1.5322 17.8353
RightArm  -70.4025 11.9391 27.3707
RightForeArm  96.1636 50.194 163.729
RightHand  -4.59046 27.1176 -16.5962
LeftUpLeg  -22.1602 16.3295 3.24588
LeftLeg  42.0969 2.8911 3.20189
LeftFoot  -18.8363 0.265366 2.32804
LeftToes  -2.88401e-009 5.30678e-011 -1.08654e-010
954
root  34.3548 36.4939 3.15402 160.552 -82.1851 -160.203
RightUpLeg  -38.3923 -14.3526 -1.51978
RightLeg  35.7763 0.661226 0.259296
RightFoot  -9.90473 -0.210314 11.3641
RightToes  7.56698e-010 0 -3.6325e-017
Spine  37.6009 -5.6782 -4.22519
Spine1  -10.4245 -6.8413 -0.899803
HEad  -37.4835 13.2191 -27.7816
LeftShoulder1  0.620786 -6.99832 2.88666
LeftArm  -39.4113 -77.0392 -25.087
LeftForeArm  9.06694 -66.633 -26.6903
LeftHand  -0.195461 10.4079 -3.04643
RightShoulder  0.483589 -1.48301 17.5453
RightArm  -69.9903 11.7078 27.7802
RightForeArm  95.5602 50.0077 163.81
RightHand  -4.87091 28.0641 -17.0458
LeftUpLeg  -22.4959 16.5888 3.23735
LeftLeg  44.472 2.70514 3.2633
LeftFoot  -21.0402 0.300797 2.04809
LeftToes  -2.88401e-009 5.30678e-011 -1.08654e-010
955
root  33.6874 36.0791 3.05486 162.621 -82.4387 -162.289
RightUpLeg  -38.4656 -13.2783 -1.05582
RightLeg  29.4835 0.131663 -0.155148
RightFoot  -9.9961 -0.206541 11.7539
RightToes  7.56698e-010 0 -3.6325e-017
Spine  37.8659 -5.71114 -4.06321
Spine1  -10.0859 -6.91169 -0.613185
HEad  -36.9446 12.866 -27.2779
LeftShoulder1  0.658034 -7.01461 2.49201
LeftArm  -38.0171 -76.9965 -26.142
LeftForeArm  9.19575 -66.7539 -26.8595
LeftHand  -0.170383 9.7351 -2.98106
RightShoulder  0.471574 -1.52348 17.4224
RightArm  -69.7383 11.0878 28.0986
RightForeArm  93.8164 49.5986 163.977
RightHand  -5.62577 29.2498 -18.9383
LeftUpLeg  -22.6432 16.4485 3.21373
LeftLeg  47.4123 2.61329 3.48362
LeftFoot  -23.4081 0.321334 1.72016
LeftToes  -2.88401e-009 5.30678e-011 -1.08654e-010
956
root  32.9495 35.546 2.88095 166.376 -82.7421 -166.123
RightUpLeg  -38.7853 -11.7599 -1.11988
RightLeg  26.6719 0.0596938 -0.197906
RightFoot  -9.83315 -0.237173 11.9634
RightToes  7.56698e-010 0 -3.6325e-017
Spine  37.8449 -5.59091 -4.27184
Spine1  -9.41238 -6.95461 -0.0485074
HEad  -37.251 12.5577 -27.539
LeftShoulder1  0.699169 -6.98125 2.01909
LeftArm  -37.9789 -76.8652 -25.7001
LeftForeArm  9.20312 -66.724 -26.8123
LeftHand  -0.203194 9.69973 -3.85493
RightShoulder  0.478414 -1.47723 17.192
RightArm  -69.427 11.1529 28.4013
RightForeArm  95.1128 49.6804 163.966
RightHand  -5.27737 29.4579 -17.7005
LeftUpLeg  -22.7494 16.2757 3.1498
LeftLeg  50.8094 2.44008 3.67219
LeftFoot  -26.2391 0.277043 0.910762
LeftToes  -2.88401e-009 5.30678e-011 -1.08654e-010
